HIERARCHY
ROOT root     
{
	OFFSET 0.0000 0.0000 0.0000
	CHANNELS 6 Xposition Yposition Zposition Zrotation Yrotation Xrotation
	JOINT pelvis   
	{
		OFFSET 0.0000 0.0000 0.0000
		CHANNELS 3 Zrotation Yrotation Xrotation
		JOINT thorax   
		{
			OFFSET 0.0000 23.0750 -5.0000
			CHANNELS 3 Zrotation Yrotation Xrotation
			JOINT rclavicle
			{
				OFFSET 0.0000 28.0009 0.0000
				CHANNELS 3 Zrotation Yrotation Xrotation
				JOINT rhumerus 
				{
					OFFSET -18.5725 5.5939 0.0000
					CHANNELS 3 Zrotation Yrotation Xrotation
					JOINT rradius  
					{
						OFFSET -24.8459 0.0000 0.0000
						CHANNELS 3 Zrotation Yrotation Xrotation
						JOINT rhand    
						{
							OFFSET -24.5477 0.0000 0.0000
							CHANNELS 3 Zrotation Yrotation Xrotation
							End Site
							{
								OFFSET -8.1826 0.0000 0.0000
							}
						}
					}
				}
			}
			JOINT lclavicle
			{
				OFFSET 0.0000 28.0009 0.0000
				CHANNELS 3 Zrotation Yrotation Xrotation
				JOINT lhumerus 
				{
					OFFSET 18.5725 5.5939 0.0000
					CHANNELS 3 Zrotation Yrotation Xrotation
					JOINT lradius  
					{
						OFFSET 24.8459 0.0000 0.0000
						CHANNELS 3 Zrotation Yrotation Xrotation
						JOINT lhand    
						{
							OFFSET 24.5477 0.0000 0.0000
							CHANNELS 3 Zrotation Yrotation Xrotation
							End Site
							{
								OFFSET 8.1826 0.0000 0.0000
							}
						}
					}
				}
			}
			JOINT head     
			{
				OFFSET 0.0000 35.2030 0.0000
				CHANNELS 3 Zrotation Yrotation Xrotation
				End Site
				{
					OFFSET 0.0000 11.7343 0.0000
				}
			}
		}
		JOINT rfemur   
		{
			OFFSET -8.2817 0.0000 0.0000
			CHANNELS 3 Zrotation Yrotation Xrotation
			JOINT rtibia   
			{
				OFFSET 0.0000 -43.3627 0.0000
				CHANNELS 3 Zrotation Yrotation Xrotation
				JOINT rfoot    
				{
					OFFSET 0.0000 -38.2947 0.0000
					CHANNELS 3 Zrotation Yrotation Xrotation
					JOINT rtoes    
					{
						OFFSET 0.0000 0.0000 16.6054
						CHANNELS 3 Zrotation Yrotation Xrotation
						End Site
						{
							OFFSET 0.0000 0.0000 5.5351
						}
					}
				}
			}
		}
		JOINT lfemur   
		{
			OFFSET 8.2817 0.0000 0.0000
			CHANNELS 3 Zrotation Yrotation Xrotation
			JOINT ltibia   
			{
				OFFSET 0.0000 -43.3627 0.0000
				CHANNELS 3 Zrotation Yrotation Xrotation
				JOINT lfoot    
				{
					OFFSET 0.0000 -38.2947 0.0000
					CHANNELS 3 Zrotation Yrotation Xrotation
					JOINT ltoes    
					{
						OFFSET 0.0000 0.0000 16.6054
						CHANNELS 3 Zrotation Yrotation Xrotation
						End Site
						{
							OFFSET 0.0000 0.0000 5.5351
						}
					}
				}
			}
		}
	}
}
MOTION
Frames: 9
Frame Time: .0333333
76.883 70.207 13.171 72.6185 -86.3472 -10.7408 0 -0 0 -1.79409 -8.5267 9.29195 21.7653 -8.07334 -5.16622e-05 62.392 13.8382 -19.8756 -8.65997e-08 15.8619 -6.21618e-07 -12.1303 20.1638 -2.16464 -15.5046 8.95094 1.67881e-05 -57.9095 -11.7652 -8.77384 0 -35.7728 -0 16.2079 -2.82025 -0.401699 3.31019 -0.274436 -54.7159 5.05431 -12.2571 -88.4186 -0 -0 78.2212 6.15965e-06 -5.97562 -24.4992 2.48541 4.39951e-05 -70.8131 -8.06577 5.22833 -89.951 -0 -0 79.6204 -5.76556e-06 11.8544 -21.693 -4.4364 3.27549e-05 -65.5464 
75.819 70.513 13.086 70.8592 -86.3883 -10.0998 0 -0 0 -1.75699 -8.4213 8.75784 21.1427 -7.93766 5.77111e-06 62.8875 15.3126 -16.8672 -0 17.7755 -0 -12.4389 20.0702 -2.20957 -14.8074 8.57597 2.24992e-05 -58.1159 -13.0121 -7.75525 0 -37.5351 -0 16.4233 -2.61098 -0.376896 3.26314 -0.514508 -54.3737 5.0007 -12.4027 -85.8513 -0 -0 77.0054 -4.45984e-05 -6.08736 -24.6846 2.55019 -4.06605e-05 -70.8507 -7.94512 5.68306 -87.5045 -0 -0 78.5115 0.000134018 11.9501 -21.7876 -4.49189 -2.24645e-05 -65.7696 
74.694 70.862 12.994 68.8954 -86.4581 -9.31462 0 -0 0 -1.70741 -8.28865 8.22559 20.4632 -7.84694 7.29912e-06 63.358 16.6769 -13.5734 -0 19.9991 -0 -12.9044 19.7189 -2.25205 -14.0539 8.22434 -3.73382e-05 -58.3785 -14.2459 -6.66247 0 -39.3836 -0 16.5699 -2.41859 -0.352194 3.2123 -0.757394 -53.9366 4.95148 -12.5305 -83.058 -0 -0 75.5074 -2.93924e-05 -6.27685 -25.0064 2.66203 -7.79223e-07 -70.564 -7.7991 6.16854 -84.8918 -0 -0 77.2277 -7.45329e-05 12.0637 -21.887 -4.555 -4.1858e-05 -65.8647 
73.505 71.262 12.899 66.9146 -86.4993 -8.53638 0 -0 0 -1.66031 -8.13954 7.69876 19.7341 -7.78428 1.27568e-05 63.7825 17.9509 -10.1851 -0 22.458 -0 -13.4657 19.1604 -2.28298 -13.254 7.89226 1.52416e-05 -58.6828 -15.4749 -5.50949 0 -41.2805 -0 16.6532 -2.249 -0.329193 3.16897 -1.00281 -53.3927 4.88057 -12.6522 -80.0406 -0 -0 73.7226 -7.41278e-06 -6.51511 -25.4131 2.80566 -1.99389e-07 -69.9934 -7.62011 6.66484 -82.1131 -0 -0 75.7636 5.59636e-05 12.1718 -21.9528 -4.61018 -4.63145e-05 -65.8779 
72.248 71.721 12.803 65.0347 -86.5613 -7.92705 0 -0 0 -1.63388 -7.98109 7.18431 18.9696 -7.73984 -7.58182e-05 64.1486 19.1707 -6.86223 -1.44569e-07 25.0576 -6.50562e-07 -14.0596 18.4738 -2.29764 -12.4215 7.57971 3.68309e-05 -59.0121 -16.7191 -4.30442 0 -43.1796 -0 16.6889 -2.11339 -0.309991 3.14653 -1.25527 -52.7368 4.76292 -12.778 -76.8085 -0 -0 71.6497 2.50885e-05 -6.76071 -25.8148 2.95522 4.2353e-06 -69.245 -7.40238 7.1509 -79.1719 -0 -0 74.1192 9.00418e-05 12.2535 -21.9273 -4.63709 3.33908e-05 -65.891 
70.921 72.249 12.709 63.4635 -86.5794 -7.64955 0 -0 0 -1.64366 -7.8201 6.69189 18.1775 -7.70043 -1.18535e-05 64.4551 20.3671 -3.73233 -0 27.701 -0 -14.6331 17.7587 -2.29827 -11.5708 7.2828 -1.92923e-05 -59.3509 -17.9919 -3.06279 0 -45.037 -0 16.702 -2.02639 -0.2975 3.15516 -1.5207 -51.9677 4.57864 -12.9181 -73.3778 -0 -0 69.3 -2.80412e-05 -6.96586 -26.0924 3.07604 -1.58125e-05 -68.4842 -7.14187 7.60493 -76.0756 -0 -0 72.2935 -7.47287e-06 12.2884 -21.74 -4.61255 6.84089e-05 -66.0151 
69.522 72.854 12.619 62.3342 -86.5796 -7.85917 0 -0 0 -1.69886 -7.66257 6.23355 17.3673 -7.65083 3.38556e-05 64.7125 21.5605 -0.875622 -0 30.298 -0 -15.1487 17.1149 -2.29254 -10.7141 6.99461 4.77027e-06 -59.6882 -19.3038 -1.79831 3.50426e-07 -46.8127 -8.09538e-07 16.7203 -2.00706 -0.295006 3.20023 -1.80428 -51.0909 4.31635 -13.0799 -69.7717 -0 -0 66.6913 -3.22572e-05 -7.08298 -26.107 3.12966 1.32995e-05 -67.9278 -6.83515 8.00719 -72.8373 -0 -0 70.2876 -0.000107069 12.2595 -21.3043 -4.51384 3.89038e-05 -66.3883 
68.052 73.544 12.536 61.6426 -86.5524 -8.54643 0 -0 0 -1.8059 -7.5089 5.8229 16.5502 -7.58363 -2.34854e-05 64.921 22.7693 1.68669 -0 32.7714 -0 -15.6013 16.6189 -2.29253 -9.86504 6.70635 4.98886e-06 -60.0131 -20.6581 -0.528332 3.73815e-07 -48.474 -8.30349e-07 16.778 -2.07799 -0.306508 3.28305 -2.11232 -50.1149 3.97487 -13.2712 -66.0196 -0 -0 63.8506 5.35325e-06 -7.07033 -25.709 3.07979 1.54366e-05 -67.8148 -6.48151 8.34326 -69.4685 -0 -0 68.106 -0.000138433 12.1597 -20.528 -4.32071 -2.63297e-05 -67.142 
66.512 74.323 12.46 61.4047 -86.4849 -9.71424 0 -0 0 -1.96418 -7.35564 5.47318 15.7339 -7.49343 1.3106e-05 65.0808 24.0038 3.96376 -0 35.0571 -0 -15.9973 16.3231 -2.30896 -9.03335 6.40738 1.4235e-05 -60.3174 -22.0529 0.732008 0 -49.998 -0 16.9025 -2.26211 -0.336108 3.3994 -2.44867 -49.0509 3.56099 -13.4977 -62.1508 -0 -0 60.8124 3.72759e-05 -6.89785 -24.7592 2.90035 3.37472e-05 -68.3668 -6.0829 8.60441 -65.993 -0 -0 65.7553 5.40701e-05 11.991 -19.3174 -4.01896 1.54481e-05 -68.3925 
